<?xml version="1.0" encoding="UTF-8"?><svg id="a" xmlns="http://www.w3.org/2000/svg" viewBox="0 0 75.3 71.67"><defs><style>.b{fill:#fff;}</style></defs><path d="M73.05,36.96c-6.61,1.22-11.1,3.35-6.06,5.41,.56,.23,.47,1.03-.12,1.13-4.77,.88-5.87,2.2-2.57,4.77,.38,.3,.24,.89-.23,1.03-1.8,.53,.22,2.42,3.58,4.86,.53,.39,.13,1.22-.51,1.05-4.15-1.1-7.19-1.65-6.77-.21,.13,.46-.32,.87-.78,.71-3.28-1.12-2.93,.01,.28,2.79,.49,.43,.03,1.22-.59,1.01-4.59-1.58-6.81-1.63-5.74,1.44,.17,.49-.34,.92-.82,.72-1.81-.76-.92,1.39,1.35,4.94,.37,.57-.36,1.21-.89,.77-3.71-3.04-6.19-4.73-6.4-2.73-.05,.5-.72,.67-1.06,.3-1.94-2.09-1.87-.51-.42,3.48,.23,.64-.62,1.1-1.04,.56-3.53-4.56-5.48-6.04-5.63-1-1.92-4.46-2.44-2.61-2.27,2.61,.02,.69-.95,.85-1.17,.2-1.49-4.55-2.62-6.92-3.72-5.02-.26,.45-.95,.31-1.08-.19-.63-2.42-1.51-.95-2.69,3-.2,.66-1.18,.51-1.17-.18,.07-4.35-.25-6.43-1.66-4.81-.34,.4-1.02,.17-1.04-.35-.09-2.25-1.47-1.03-3.87,2.29-.41,.56-1.3,.09-1.05-.56,1.85-4.85,1.97-6.62-1.34-3.06,1.89-4.68,.22-4.35-4.05-1.37-.57,.4-1.25-.33-.8-.87,3.26-3.88,3.72-5.25-.47-2.57,2.99-4.1,.96-4.21-4.37-2.63-.67,.2-1.08-.71-.49-1.07,3.52-2.18,4.85-3.39,2.86-3.05-.56,.09-.91-.54-.55-.98,1.73-2.07-.38-2.69-5.15-2.84-.69-.02-.81-.99-.14-1.17,5.11-1.34,5.98-2.22,.62-2.24,4.78-2.06,2.51-3.47-3.38-5.35-.65-.21-.5-1.16,.18-1.16,4.6,.02,6.65-.4,4.57-1.47-.48-.25-.37-.97,.16-1.09,3.26-.76,2.16-2.53-1.8-5.55-.53-.4-.1-1.24,.54-1.04,4.3,1.33,5.44,1.05,2.73-1.19-.41-.34-.2-1.01,.34-1.05,1.97-.15,.39-2.3-2.82-5.58-.47-.48,.09-1.24,.7-.94,3.91,1.93,6.12,2.53,5.32,.44-.2-.51,.32-1,.82-.76,3.74,1.76,4.21,.17,2.45-4.56-.22-.58,.48-1.05,.95-.66,4.26,3.56,4.22-.64,2.14-7.11-.2-.62,.6-1.06,1.03-.57,2.81,3.27,4.78,5.01,5.5,2.85,.16-.48,.81-.57,1.08-.14,2.46,4.05,3.81,3.75,4.67-1.01,.1-.57,.88-.68,1.13-.16,2.11,4.32,3.83,.13,4.85-6.07,.11-.65,1.03-.68,1.17-.04,.85,3.71,1.67,6.15,3.17,5.06,.4-.29,.96-.04,.97,.46,.07,4.75,1.12,5.52,3.79,1.97,.33-.44,1.06-.25,1.08,.3,.2,4.46,3.85,1.03,8.17-3.67,.43-.47,1.21-.02,1.01,.58-2.02,6.2-3.39,11,1.35,9.04,.48-.2,.97,.27,.79,.75-1.8,4.75,3.41,3.36,10.15,1.99,.62-.13,.99,.67,.48,1.05-5.02,3.78-8.44,7.48-3.66,7.55,.57,0,.81,.73,.35,1.07-3.5,2.63-2.86,3.89,1.75,4.43,.46,.05,.68,.57,.41,.95-1.01,1.39,1.97,2.29,5.94,3.34,.61,.16,.59,1.04-.04,1.16Z"/><g><path class="b" d="M52.28,33.61c-.14,4.5-2.35,6.79-6.37,6.6-4.36-.21-7.73-3.98-7.5-8.4,.18-3.41,4.3-7.03,7.8-6.85,3.65,.19,6.21,3.85,6.06,8.65Z"/><path class="b" d="M26.64,24.82c4.1,.07,7.14,3.23,7.01,7.28-.16,4.9-2.77,7.95-6.8,7.93-3.96-.02-6.62-3.05-6.63-7.55-.01-4.7,2.53-7.73,6.42-7.67Z"/><circle cx="43.22" cy="32.43" r="2.41"/><circle cx="29.35" cy="32.43" r="2.41"/></g></svg>