<?xml version="1.0" encoding="UTF-8"?><svg id="a" xmlns="http://www.w3.org/2000/svg" viewBox="0 0 73.69 70.64"><defs><style>.b{fill:#fff;}</style></defs><path d="M24.58,66.99c-2.17-3.95-6.29-5.78-8.33-6.66-.03-.01-.05-.03-.07-.05-.88-1.01-1.31-.84-.59,.84,.08,.2-.19,.33-.33,.16-2.76-3.44-4.91-5.79-6.09-6.58-.61-.77-.92-.91-.88-.49,.02,.19-.27,.25-.36,.07-1.73-3.26-2.57-6.16-4.2-7.16-.05-.03-.09-.08-.09-.14-.18-3.35,.53-6.78-2.06-7.28-.16-.03-.23-.21-.11-.31,2.36-2.08,3.61-4.44,.52-4.12-.17,.02-.29-.15-.2-.28,3.82-5.49,7.85-11.37,2.15-13.31-.2-.07-.18-.34,.03-.35,7.11-.38,7.42-.32,.53,1.8,8.29-4.71,11.22-7.86,3.02-9.88,8.84,2.26,12.21-1.19,7.28-5.75-.15-.14,0-.36,.19-.29,3.64,1.27,6.05,1.47,7.27,.73,1.23-.71,1.29-2.33,.29-4.68-.07-.17,.14-.31,.3-.19,4.73,3.7,6.34,3.11,8.11-2.22,.06-.18,.32-.15,.37,.03,.63,2.59,2,4.62,2.68,3.84,2.09,1.12,4.29,.44,6.85-2.52,.12-.14,.37-.02,.33,.17-.77,3.45-.04,5.69-.18,3.14,2.81,2.73,5.63,2.22,8.83-1.94,.12-.16,.39-.03,.34,.16-1.42,5.1-.73,8.82-1.46,4.51,3.28,6.26,6.77,9.67,9.89,4.18,.1-.18,.4-.06,.35,.14-1.6,7.29-1.62,8.44-1.88,.78,2.29,8.14,4.54,9.2,8.12,2.85,.11-.19,.42-.06,.35,.15-2.65,8.01-3.01,10.7-2,3.12-.16,9.16,.54,12.31,3.8,8.27,.14-.17,.42,0,.33,.19-2.92,6.1-.96,7.47,4.95,3.75,.19-.12,.4,.13,.25,.28-5.95,6.04-6.8,7.98-2.73,7.7,.2-.01,.3,.24,.13,.33-4.47,2.55-4.02,4.05,1.08,8.02,.17,.14,.02,.39-.19,.3-5.62-2.34-6.5-1.6-5.23,3.91,.04,.19-.22,.29-.34,.13-2.46-3.19-3.05-.2-4.11,9.14-.02,.22-.36,.2-.38-.02-.78-7.61-2.31-6.5-6.5,1.52-.09,.18-.39,.09-.36-.11,.77-5.8-3.91-.93-9.53,6.5-.12,.15-.38,.04-.34-.15,1.23-6.58-4.7-6.68-8.22-1.41-.11,.16-.36,.06-.35-.13,.38-4.11-4.47-3.73-8.99-2.57-.14,.04-.27-.09-.24-.23,.49-1.75-1.3-.77-1.66,2.08-.02,.17-.26,.2-.35,.04Z"/><g><path class="b" d="M52.28,33.61c-.14,4.5-2.35,6.79-6.37,6.6-4.36-.21-7.73-3.98-7.5-8.4,.18-3.41,4.3-7.03,7.8-6.85,3.65,.19,6.21,3.85,6.06,8.65Z"/><path class="b" d="M26.64,24.82c4.1,.07,7.14,3.23,7.01,7.28-.16,4.9-2.77,7.95-6.8,7.93-3.96-.02-6.62-3.05-6.63-7.55-.01-4.7,2.53-7.73,6.42-7.67Z"/><circle cx="43.22" cy="32.43" r="2.41"/><circle cx="29.35" cy="32.43" r="2.41"/></g></svg>