<?xml version="1.0" encoding="UTF-8"?><svg id="a" xmlns="http://www.w3.org/2000/svg" viewBox="0 0 72.65 71.36"><defs><style>.b{fill:#fff;}</style></defs><path d="M71.42,37.47c-7.12,3.26-10,5.2-3.29,8.11,.28,.12,.21,.54-.09,.56-7.81,.64-7.52,2.69-1.6,7.67,.26,.22,0,.63-.3,.49-7.1-3.08-9.75-3.18-4.26,2.06,.23,.22,0,.61-.31,.48-5.89-2.4-8.35-2.58-5.88,1.49,.14,.24-.09,.52-.35,.43-3.75-1.38-3.37,1.34-1.34,6.66,.12,.33-.32,.56-.51,.27-4.61-7-6.89-7.75-4.72,.58,.08,.31-.32,.51-.51,.25-4.1-5.56-6.15-6.84-6.34-1.72-.01,.28-.37,.38-.53,.15-2.26-3.26-3.25-.48-4.12,5.49-.05,.34-.55,.33-.57-.02-.49-6.16-1.37-8.48-2.77-4.65-.1,.28-.49,.25-.56-.04-.87-3.98-2.64-1.55-5.23,4.23-.14,.31-.6,.17-.55-.16,.87-6.1,.63-8.56-1.89-5.39-.18,.23-.55,.06-.51-.23,.57-3.82-1.45-2.17-5.23,2.45-.21,.26-.62,0-.49-.3,2.32-5.49,2.77-7.96-.59-5.82-.24,.15-.54-.12-.41-.38,1.81-3.67-.54-2.86-5.72,.37-.28,.17-.59-.19-.37-.44,4.26-4.96,5.11-6.94-.13-4.96,3.91-3.41,1.33-2.94-4.63-.69-.31,.12-.54-.3-.28-.51,4.73-3.63,6.27-5.91,1.79-6.52-.27-.04-.34-.39-.12-.53,3.67-2.41,.61-3.47-5.78-4-.32-.03-.36-.48-.06-.57,6.12-1.84,8.28-3.26,3.17-4.81,5.36-.24,4.44-1.91,1-4.31-.23-.16-.13-.53,.16-.54,3.72-.09,1.84-1.91-2.82-4.79-.28-.17-.11-.6,.2-.54,6.63,1.33,4.77-.36-2.17-2.68-.31-.1-.25-.56,.08-.57,6.2-.17,9.83-.57,7.29-4.18,4.49,2.17,2.13,.49-4.44-1.6,7.08,1.21,10.35,1.05,7.88-3.42,2.81,2.07,.98,.27-3.14-2.02-.3-.16-.12-.62,.21-.54,4.98,1.19,8.02,1.52,7.98-1.79,0-.23,.27-.37,.46-.23,2.52,1.82,2.3,0,.55-3.41-.15-.29,.21-.58,.45-.35,4.16,3.96,5.2,3.46,4.31-1.79-.05-.32,.37-.48,.54-.2,2.66,4.55,3.58,4.17,4.88-1.06,.08-.32,.55-.29,.57,.05,.27,4.53,1.49,3.58,5.44-1.81,.19-.27,.6-.05,.5,.27-1.25,3.94-1.23,5.9-.04,2.68,1.12,3.77,3.71,2.05,8.03-1.73,.25-.22,.6,.08,.44,.36-2.88,5.21-3.04,7.34-.24,2.21,.15-.27,.55-.16,.54,.14-.08,5.93,2.97,4.98,7.95,1.23,.27-.2,.61,.14,.4,.41-3.35,4.27-3.86,6.79,.18,3.12,.23-.21,.58,.04,.46,.33-1.9,4.7-2.12,7,1,4.97,.23-.15,.51,.07,.43,.33-.9,3.07,1.2,2.64,4.93,.69,.29-.15,.57,.23,.34,.47-4.39,4.36-.45,5.05,5.76,1.97,.29-.14,.57,.22,.34,.46-4.32,4.48-5.76,7.31,.26,6.41,.3-.04,.46,.34,.22,.52-5.97,4.51-5.91,6.23,1.16,5.67,.31-.02,.43,.38,.17,.54-6.15,3.71-4.17,4.77,2.68,4.15,.33-.03,.44,.42,.15,.56Z"/><g><path class="b" d="M52.28,33.61c-.14,4.5-2.35,6.79-6.37,6.6-4.36-.21-7.73-3.98-7.5-8.4,.18-3.41,4.3-7.03,7.8-6.85,3.65,.19,6.21,3.85,6.06,8.65Z"/><path class="b" d="M26.64,24.82c4.1,.07,7.14,3.23,7.01,7.28-.16,4.9-2.77,7.95-6.8,7.93-3.96-.02-6.62-3.05-6.63-7.55-.01-4.7,2.53-7.73,6.42-7.67Z"/><circle cx="43.22" cy="32.43" r="2.41"/><circle cx="29.35" cy="32.43" r="2.41"/></g></svg>