<?xml version="1.0" encoding="UTF-8"?><svg id="a" xmlns="http://www.w3.org/2000/svg" viewBox="0 0 72.76 70.75"><defs><style>.b{fill:#fff;}</style></defs><path d="M72.23,38.47c-8.98,3.89-10.74,5.83-3.78,7.78,.83,.23,.69,1.44-.16,1.52-8.07,.79-8.25,2.41-1.45,6.24,.78,.44,.33,1.63-.55,1.44-6.68-1.45-10.27-1.59-7.68,1.98,.43,.59-.09,1.38-.79,1.21-5.29-1.22-5.88,.93-3.73,6.01,.35,.82-.72,1.49-1.3,.81-4.87-5.71-6.78-5.53-5.71,1.92,.12,.86-1.04,1.24-1.45,.48-4.13-7.54-6.14-7.89-7.7,1.71-.14,.89-1.41,.87-1.54-.02-1.39-9.84-3.8-9.97-6.61-1.6-.27,.82-1.49,.65-1.52-.21-.31-10.09-3.52-9.8-9.96,.26-.46,.72-1.58,.3-1.43-.54,1.65-9.39-1.31-12.57-2.95-9.32-.35,.71-1.62-.55-1.33-1.28,2.18-5.43-.27-6.72-5.08-4.23-.76,.39-1.51-.56-.94-1.2,4.85-5.54,4.13-7.12-2.22-5.6-.83,.2-1.33-.87-.65-1.38,5.89-4.41,4.59-6.35-2.99-7.64-.85-.15-.87-1.35-.02-1.53,7.28-1.5,7.79-3.18,2.13-6.93-.69-.45-.28-1.54,.53-1.42,5.98,.93,5.88-1.13,1.21-7.43-.51-.69,.3-1.58,1.03-1.13,4.68,2.9,6.48,2.03,6.97-3.31,.07-.74,1.02-.98,1.42-.36,1.41,2.15,1.93-1.11,2.09-9.61,.02-.85,1.19-1.08,1.5-.28,3.33,8.64,5.72,8.35,8.12-1.57,.2-.83,1.41-.76,1.52,.09,1.17,8.4,3.54,8.01,7.69-2.3,.32-.8,1.52-.56,1.5,.31-.28,10.34,2.62,10.45,8.81,1.7,.5-.7,1.59-.21,1.39,.63-2.2,9.28,.33,9.73,6.73,2.31,.58-.67,1.65-.03,1.32,.79-2.86,6.98-.23,5.64,6.74,5.64,.75,0,1.05,.93,.47,1.4-3.98,3.17-1.13,7.07,6.98,3.29,.76-.35,1.45,.59,.9,1.22-8.26,9.57-9.28,13.1-.49,10.73,.83-.22,1.35,.86,.66,1.37-7.7,5.65-6.81,7.5,1.97,6.57,.88-.09,1.19,1.14,.37,1.49Z"/><path class="b" d="M52.28,33.61c-.14,4.5-2.35,6.79-6.37,6.6-4.36-.21-7.73-3.98-7.5-8.4,.18-3.41,4.3-7.03,7.8-6.85,3.65,.19,6.21,3.85,6.06,8.65Z"/><path class="b" d="M26.64,24.82c4.1,.07,7.14,3.23,7.01,7.28-.16,4.9-2.77,7.95-6.8,7.93-3.96-.02-6.62-3.05-6.63-7.55-.01-4.7,2.53-7.73,6.42-7.67Z"/><circle cx="43.22" cy="32.43" r="2.41"/><circle cx="29.35" cy="32.43" r="2.41"/></svg>