<?xml version="1.0" encoding="UTF-8"?><svg id="a" xmlns="http://www.w3.org/2000/svg" viewBox="0 0 74.01 71.01"><defs><style>.b{fill:#fff;}</style></defs><path d="M57.19,63.16c-3.77-2.29-6.17-1.87-7.54,2.28-.31,.94-1.47,1.22-2.16,.52-2.45-2.46-4.11-.62-5.3,3.57-.31,1.08-1.78,1.29-2.36,.33-2.4-3.97-4.65-5.79-7.71-3.37-.71,.56-1.75,.23-2.04-.63-.96-2.83-3.12-1.57-5.6,1.62-.74,.95-2.25,.51-2.33-.68-.31-4.75-1.05-7.88-4.47-7.33-.84,.14-1.56-.57-1.47-1.42,.29-2.86-2.38-2.53-6.14-.93-1.13,.48-2.22-.74-1.63-1.82,2.16-3.99,3.31-6.91,.5-7.74-.82-.24-1.19-1.16-.76-1.91,1.43-2.49-1.01-3.53-5.03-4.28-1.23-.23-1.43-1.91-.3-2.45,3.64-1.72,5.76-3.36,3.73-4.91-.7-.53-.67-1.58,.05-2.1,2.66-1.93,1.04-4.28-2.27-7.41-.9-.85-.21-2.37,1.02-2.25,4.15,.43,6.65-.16,5.19-2.63-.47-.8,.02-1.83,.95-1.96,4.03-.56,4.17-3.55,2.74-8.37-.34-1.13,.92-2.12,1.93-1.5,4.02,2.48,6.61,2.86,6.34-.64-.08-.99,1.01-1.65,1.9-1.21,3.91,1.92,5.67,.22,6.46-4.33,.2-1.16,1.74-1.45,2.38-.47,2.53,3.87,4.47,4.81,5.99,1.47,.45-.98,1.84-1.05,2.33-.1,2,3.9,3.99,3.97,6.66,.64,.73-.91,2.19-.45,2.3,.71,.43,4.56,1.87,5.85,5.2,3.59,.95-.64,2.19,.14,2.02,1.27-.68,4.43,.79,5.69,5.03,4.37,1.12-.35,2.08,.8,1.54,1.84-2.11,4.06-1.24,5.78,3.15,5.83,1.15,.01,1.71,1.39,.89,2.21-2.97,2.98-2.33,4.72,1.87,6.03,1.12,.35,1.25,1.84,.21,2.4-3.58,1.91-3.43,3.76,.16,6.27,.93,.65,.64,2.09-.48,2.34-3.75,.86-3.77,2.84-.91,6.34,.7,.86,.07,2.2-1.04,2.14-4.03-.22-5.04,1.55-3.55,5.8,.35,.99-.58,1.98-1.59,1.68-3.66-1.07-4.54,1.15-3.88,5.89,.15,1.09-1.04,1.86-1.98,1.29Z"/><g><path class="b" d="M52.28,33.61c-.14,4.5-2.35,6.79-6.37,6.6-4.36-.21-7.73-3.98-7.5-8.4,.18-3.41,4.3-7.03,7.8-6.85,3.65,.19,6.21,3.85,6.06,8.65Z"/><path class="b" d="M26.64,24.82c4.1,.07,7.14,3.23,7.01,7.28-.16,4.9-2.77,7.95-6.8,7.93-3.96-.02-6.62-3.05-6.63-7.55-.01-4.7,2.53-7.73,6.42-7.67Z"/><circle cx="43.22" cy="32.43" r="2.41"/><circle cx="29.35" cy="32.43" r="2.41"/></g></svg>