<?xml version="1.0" encoding="UTF-8"?><svg id="a" xmlns="http://www.w3.org/2000/svg" viewBox="0 0 72.79 71.37"><defs><style>.b{fill:#fff;}</style></defs><path d="M71.8,36.09c-7.75,3.4-8.92,5.49-1.73,8.22,.45,.17,.36,.8-.12,.85-8.29,.79-9.4,2.49-3.29,7.3,.37,.3,.07,.88-.4,.77-7.98-1.87-9.29-.47-4.98,6.12,.26,.39-.22,.86-.62,.61-6.78-4.19-8.23-2.91-6.3,4.83,.11,.46-.49,.75-.79,.39-4.96-5.95-6.75-4.97-7.59,3.06-.05,.46-.7,.55-.87,.12-2.81-7.02-4.96-5.83-8.42,1.77-.19,.42-.83,.32-.87-.14-.64-7.55-2.84-8.51-8.66-2.95-.33,.31-.87,.02-.76-.42,1.76-6.98-1.5-6.13-7.93-1-.37,.29-.89-.09-.71-.51,3.13-7.17,3.14-10.91-4.52-9.92-.43,.06-.7-.45-.39-.74,4.91-4.61,.2-4.56-7.27-1.57-.46,.18-.84-.37-.5-.71,5.97-5.98,9.74-9.96,3.25-12.8-.38-.17-.36-.71,.04-.82,5.72-1.58,.39-3.31-7.22-3.27-.51,0-.64-.69-.16-.85,7.79-2.66,13.8-3.86,9.71-8.24-.28-.3-.01-.77,.4-.72,5.04,.59,.92-2.98-4.73-6.67-.44-.29-.1-.95,.4-.78,6.63,2.17,11.92,4.12,9.72-.37-.18-.36,.21-.75,.59-.59,4.73,2.01,2.72-3.31,.75-9.99-.14-.49,.55-.79,.82-.35,3.58,5.64,7.23,9.59,6.57,4.62-.05-.39,.43-.65,.73-.4,4.68,3.91,6.03-2.08,8.99-9.66,.18-.46,.88-.33,.88,.16-.03,7.36,1.86,12.42,3.65,6.8,.12-.39,.67-.42,.85-.05,2.95,6.28,7.08,2.73,13.07-2.9,.35-.33,.91,.03,.74,.47-2.71,7.17-2.57,11.55,2.31,6.94,.31-.3,.83-.04,.77,.38-1.1,7.31,2.42,7.58,9.48,4.62,.43-.18,.82,.31,.54,.67-4.94,6.29-5.61,9.35,1.52,7.77,.44-.1,.73,.44,.41,.75-5.78,5.55-5.18,7.76,2.47,8.38,.47,.04,.58,.65,.15,.84Z"/><g><path class="b" d="M52.28,33.61c-.14,4.5-2.35,6.79-6.37,6.6-4.36-.21-7.73-3.98-7.5-8.4,.18-3.41,4.3-7.03,7.8-6.85,3.65,.19,6.21,3.85,6.06,8.65Z"/><path class="b" d="M26.64,24.82c4.1,.07,7.14,3.23,7.01,7.28-.16,4.9-2.77,7.95-6.8,7.93-3.96-.02-6.62-3.05-6.63-7.55-.01-4.7,2.53-7.73,6.42-7.67Z"/><circle cx="43.22" cy="32.43" r="2.41"/><circle cx="29.35" cy="32.43" r="2.41"/></g></svg>