<?xml version="1.0" standalone="no"?>
<!DOCTYPE svg PUBLIC "-//W3C//DTD SVG 20010904//EN"
 "http://www.w3.org/TR/2001/REC-SVG-20010904/DTD/svg10.dtd">
<svg version="1.0" xmlns="http://www.w3.org/2000/svg"
 width="533.000000pt" height="533.000000pt" viewBox="0 0 533.000000 533.000000"
 preserveAspectRatio="xMidYMid meet">
<metadata>
Created by potrace 1.14, written by Peter Selinger 2001-2017
</metadata>
<g transform="translate(0.000000,533.000000) scale(0.100000,-0.100000)"
fill="#000000" stroke="none">
<path d="M833 4892 c-6 -4 -90 -7 -187 -7 -97 0 -176 -3 -176 -6 0 -6 -43 -21
-47 -16 0 1 -12 -10 -26 -25 -14 -15 -28 -24 -31 -21 -3 4 -6 1 -6 -5 0 -7 -6
-12 -14 -12 -7 0 -19 -7 -26 -15 -7 -8 -16 -12 -21 -9 -5 3 -9 1 -9 -4 0 -5
-18 -17 -40 -28 -22 -10 -40 -22 -40 -26 0 -5 -5 -8 -11 -8 -6 0 -30 -15 -52
-32 -56 -44 -91 -78 -83 -78 4 0 -2 -12 -13 -26 -11 -15 -18 -30 -15 -35 3 -5
1 -9 -3 -9 -5 0 -9 -9 -10 -20 -1 -13 3 -18 10 -14 7 3 4 -1 -5 -9 -18 -14
-25 -47 -10 -47 4 0 8 -9 9 -20 1 -13 -2 -18 -10 -14 -8 5 -8 3 1 -7 6 -7 12
-23 12 -36 0 -13 5 -23 11 -23 6 0 9 -7 5 -15 -3 -8 0 -15 7 -15 7 0 14 -12
15 -27 1 -16 7 -30 12 -31 6 -2 17 -10 25 -19 8 -8 15 -12 15 -8 0 11 61 -26
67 -40 3 -8 9 -12 14 -9 5 3 9 1 9 -4 0 -10 58 -21 144 -28 28 -2 53 -10 58
-16 4 -7 8 -9 8 -4 0 16 60 -59 60 -76 0 -9 4 -19 10 -23 5 -3 6 -13 3 -21 -3
-9 -1 -19 5 -23 7 -4 13 -19 14 -34 1 -15 5 -27 8 -27 3 0 5 -13 4 -30 -1 -17
3 -30 9 -30 8 0 8 -3 2 -8 -12 -8 -11 -6 -20 -97 -3 -38 -10 -72 -15 -75 -5
-3 -12 -18 -15 -33 -4 -15 -11 -27 -15 -27 -5 0 -12 -9 -15 -21 -4 -11 -19
-33 -34 -48 -19 -20 -25 -34 -20 -47 3 -10 1 -25 -5 -33 -8 -11 -8 -13 1 -8 9
6 12 -10 10 -67 -1 -43 -5 -72 -11 -69 -5 4 -6 0 0 -8 4 -8 9 -34 10 -59 1
-25 5 -99 8 -165 11 -203 12 -356 3 -362 -4 -2 -4 -10 0 -16 5 -7 8 -126 8
-265 0 -234 -1 -254 -18 -264 -16 -9 -18 -23 -16 -136 2 -166 1 -178 -14 -194
-8 -7 -14 -21 -14 -30 0 -26 -25 -78 -34 -72 -5 3 -9 -3 -9 -12 0 -10 -3 -15
-6 -11 -9 8 -64 -21 -64 -33 0 -6 -3 -9 -7 -9 -25 4 -45 -5 -77 -33 -19 -17
-33 -34 -31 -38 2 -3 -7 -14 -21 -24 -13 -11 -24 -24 -24 -31 0 -7 -6 -17 -13
-23 -7 -6 -12 -29 -11 -51 0 -24 -4 -41 -10 -41 -7 0 -7 -3 -1 -8 6 -4 11 -27
12 -51 0 -24 7 -47 13 -51 7 -4 10 -12 6 -18 -3 -6 2 -15 11 -21 10 -6 14 -11
10 -11 -4 0 4 -12 18 -27 14 -15 25 -30 25 -33 0 -3 30 -5 68 -5 62 -1 132
-18 132 -34 0 -4 9 -7 21 -8 28 -2 84 -46 106 -83 9 -17 21 -30 25 -30 4 0 5
-6 2 -13 -3 -8 2 -20 11 -27 8 -7 15 -21 15 -31 0 -11 4 -19 8 -19 9 0 10 -7
13 -55 1 -14 5 -25 9 -25 5 0 7 -8 5 -17 -1 -10 0 -22 3 -28 3 -5 6 -37 6 -71
1 -34 4 -65 8 -69 4 -4 4 -13 1 -21 -3 -8 0 -14 6 -14 6 0 10 -4 8 -9 -3 -13
56 -90 71 -91 6 0 12 -3 12 -7 0 -21 99 -114 130 -123 22 -6 560 -8 1530 -6
822 3 1501 5 1508 6 6 1 45 1 85 1 614 -2 670 0 741 25 38 13 73 21 78 18 4
-3 8 0 8 6 0 7 7 10 15 6 8 -3 21 1 29 9 18 18 29 19 21 3 -4 -7 0 -5 8 4 8
10 17 15 20 11 4 -3 7 -1 7 5 0 7 5 12 11 12 7 0 18 8 26 17 10 12 12 13 8 3
-4 -8 1 -6 10 5 9 11 18 19 20 18 12 -7 24 -1 51 22 15 13 30 22 32 20 2 -2
17 10 33 26 15 16 33 29 39 29 6 0 8 5 5 10 -3 6 -1 10 5 10 6 0 8 5 5 10 -3
6 0 10 8 10 8 0 18 7 21 16 4 9 9 14 12 11 14 -13 104 97 104 128 0 8 5 15 10
15 6 0 10 9 10 20 0 11 6 20 13 20 7 0 8 3 2 8 -5 4 -11 27 -12 52 -2 51 -7
77 -18 103 -4 9 -2 23 3 30 7 8 7 18 2 27 -6 8 -10 11 -10 5 0 -5 -5 -3 -10 6
-6 10 -29 20 -55 23 -25 4 -45 11 -45 16 0 13 -56 41 -65 32 -5 -4 -5 -2 -2 4
3 6 -5 17 -18 24 -14 7 -25 17 -25 22 0 4 -7 8 -16 8 -8 0 -12 5 -9 10 3 6 1
10 -5 10 -6 0 -8 5 -5 10 3 6 0 10 -9 10 -8 0 -20 13 -28 30 -7 16 -17 30 -21
30 -5 0 -5 5 -2 10 3 6 1 10 -5 10 -6 0 -8 5 -4 11 3 6 0 15 -7 20 -11 7 -11
9 -1 9 7 0 10 5 7 10 -4 6 -12 7 -18 4 -8 -5 -8 -3 1 7 16 17 16 43 0 33 -10
-6 -10 -4 -2 7 6 8 10 29 9 47 -1 17 1 32 4 32 4 0 6 15 5 33 -1 19 10 58 26
90 15 31 25 59 22 62 -3 3 0 5 7 5 7 0 9 5 6 10 -3 6 1 13 9 16 9 3 16 12 16
20 0 8 7 14 17 14 9 0 14 3 10 6 -3 3 4 16 15 29 11 13 19 26 18 30 -1 4 4 11
11 15 6 5 13 24 14 44 1 20 5 40 9 43 3 3 1 12 -5 20 -9 10 -8 13 1 13 9 0 10
3 1 13 -6 8 -8 17 -5 20 13 12 12 317 0 317 -6 0 -4 5 4 10 9 6 10 10 3 10 -7
0 -10 9 -7 23 5 19 15 215 14 284 0 12 5 25 11 28 7 5 7 11 0 19 -13 15 -10
56 4 56 7 0 7 3 0 8 -6 4 -11 21 -11 37 0 17 5 33 11 37 6 5 6 8 -2 8 -13 0
-13 34 0 46 3 4 2 15 -3 25 -7 12 -6 20 1 25 8 4 7 9 -2 15 -9 6 -10 9 -2 9 7
0 11 15 10 40 -1 22 -6 40 -11 40 -5 0 -4 6 2 13 15 18 15 29 0 38 -7 5 -8 9
-2 9 11 0 13 30 18 205 3 96 22 170 50 201 6 7 24 28 40 48 16 20 35 36 42 36
11 0 24 21 24 41 0 5 -5 9 -11 9 -7 0 -18 8 -25 18 -13 16 -14 16 -8 -3 5 -16
4 -17 -4 -6 -8 11 -4 22 14 44 13 16 25 33 25 38 2 10 5 25 9 37 1 4 2 10 1
15 0 4 3 7 7 7 10 0 15 136 5 152 -4 7 -8 18 -9 24 -1 6 -5 20 -8 31 -4 12 -1
25 8 32 19 16 -2 64 -24 55 -8 -3 -12 -2 -8 1 7 8 -55 73 -64 68 -5 -2 -8 0
-8 5 0 5 -10 9 -22 8 -13 0 -22 4 -21 10 2 11 -48 10 -68 -1 -8 -5 -10 -4 -5
3 8 13 -37 28 -53 17 -6 -3 -11 0 -11 7 -1 8 -6 6 -15 -6 -8 -10 -19 -15 -26
-10 -9 5 -10 2 -6 -9 3 -9 2 -19 -3 -22 -6 -4 -10 1 -10 10 0 9 -4 14 -9 11
-7 -5 -60 45 -62 59 -5 27 -13 45 -21 45 -5 0 -7 4 -4 9 3 5 0 14 -8 20 -7 6
-13 25 -14 42 0 18 -4 35 -9 38 -9 7 -12 37 -15 169 -1 50 -6 92 -10 92 -5 0
-7 4 -4 8 3 5 -1 21 -9 36 -8 14 -10 24 -5 21 22 -14 8 19 -17 41 -25 21 -35
25 -58 24 -3 -1 -12 6 -20 13 -16 16 -9 16 -550 16 -335 -1 -433 -1 -610 1
-44 1 -134 1 -200 1 l-121 -1 -34 -36 c-19 -20 -63 -64 -97 -99 -35 -34 -63
-67 -63 -74 0 -6 -7 -11 -17 -11 -9 0 -14 -3 -10 -6 7 -7 -29 -44 -43 -44 -5
0 -10 -7 -10 -16 0 -8 -4 -12 -10 -9 -5 3 -10 2 -10 -4 0 -5 -44 -55 -99 -110
-54 -55 -96 -102 -94 -105 3 -3 -7 -8 -23 -12 -18 -5 -29 -3 -32 4 -2 7 -10
12 -18 12 -9 0 -12 5 -9 10 3 6 -1 10 -9 10 -9 0 -16 9 -16 20 0 11 -3 19 -7
18 -11 -3 -83 69 -76 76 4 3 0 6 -8 6 -8 0 -25 14 -39 30 -14 17 -30 30 -37
30 -7 0 -13 6 -13 14 0 16 -100 106 -117 106 -7 0 -13 4 -13 9 0 16 -122 131
-140 131 -6 0 -10 4 -10 8 0 5 -27 9 -60 10 -33 0 -69 6 -80 12 -15 8 -20 8
-20 -1 0 -8 -4 -9 -13 0 -9 7 -120 11 -348 11 -487 0 -763 5 -774 12 -6 4 -16
4 -22 0z m1352 -750 c-3 -3 -11 0 -18 7 -9 10 -8 11 6 5 10 -3 15 -9 12 -12z
m80 2 c11 1 28 -8 38 -18 12 -14 17 -15 18 -5 0 8 4 6 9 -6 6 -14 9 -16 10 -5
1 8 5 4 9 -9 3 -13 15 -29 26 -35 18 -10 18 -10 3 3 -10 7 -18 18 -18 24 0 5
23 -13 51 -42 27 -28 48 -55 45 -60 -3 -5 1 -12 10 -15 10 -4 13 -2 8 7 -6 8
-3 8 9 -1 9 -8 21 -11 27 -7 5 3 10 1 10 -5 0 -6 5 -8 13 -3 16 10 38 10 59 1
9 -5 20 -4 23 2 4 6 11 8 16 5 5 -4 9 0 9 7 0 9 3 9 10 -2 6 -9 10 -10 10 -3
0 6 8 12 18 12 9 0 26 1 37 4 11 2 34 1 52 -4 19 -4 30 -3 27 2 -3 5 2 9 11 9
9 0 13 5 10 10 -9 14 8 13 23 -2 9 -9 12 -9 12 0 0 7 5 12 11 12 5 0 7 -4 4
-10 -3 -5 1 -10 9 -10 9 0 16 -6 17 -12 0 -10 2 -10 6 -1 3 9 10 10 24 3 14
-8 19 -7 19 1 0 8 4 8 15 -1 12 -10 16 -9 21 3 3 9 12 13 20 10 8 -3 14 0 14
7 0 6 4 9 9 6 5 -3 23 1 40 10 35 17 41 29 11 19 -11 -3 -20 -4 -20 -1 0 3 19
10 42 16 32 9 38 14 27 22 -11 7 -9 9 9 5 16 -4 22 -1 22 12 0 10 10 26 22 37
12 10 18 13 14 7 -4 -7 -2 -13 3 -13 6 0 11 4 11 9 0 5 17 8 38 6 54 -4 54 -4
48 -14 -3 -5 1 -12 10 -15 8 -3 12 -2 9 4 -3 6 1 7 9 4 9 -3 13 -11 9 -17 -4
-6 0 -8 9 -5 11 5 14 0 12 -18 -2 -20 0 -23 11 -14 9 8 14 6 19 -5 4 -11 2
-14 -7 -9 -6 3 1 -6 18 -20 24 -22 27 -29 15 -36 -14 -9 -13 -11 9 -14 15 -2
25 -16 12 -16 -7 0 -9 -5 -6 -10 4 -6 9 -8 13 -6 4 2 6 -27 4 -65 -2 -45 0
-69 7 -69 6 0 11 -5 11 -11 0 -5 -6 -7 -12 -3 -10 6 -10 4 0 -7 16 -18 16
-160 0 -178 -11 -11 -10 -12 1 -6 9 5 12 4 7 -3 -4 -7 -14 -12 -21 -12 -9 0
-12 -6 -9 -15 5 -11 2 -13 -10 -9 -11 4 -16 1 -16 -11 0 -10 -4 -13 -12 -9 -9
5 -8 2 1 -9 12 -15 12 -17 -3 -11 -9 4 -16 1 -16 -6 0 -7 -7 -10 -16 -6 -15 6
-15 4 -3 -11 9 -11 10 -14 2 -9 -12 7 -18 -5 -14 -27 1 -4 -8 -3 -20 3 -19 11
-20 10 -8 -12 6 -13 8 -20 4 -16 -4 4 -14 0 -22 -10 -12 -15 -13 -14 -2 8 11
23 11 24 -5 11 -10 -8 -15 -22 -13 -32 3 -12 0 -16 -9 -12 -8 3 -14 0 -14 -7
0 -6 -4 -8 -10 -5 -6 4 -7 -1 -3 -11 4 -11 2 -15 -4 -11 -7 5 -11 -31 -12
-110 -1 -64 -4 -120 -6 -123 -2 -4 7 -12 20 -18 17 -8 25 -8 25 -1 0 6 4 8 8
5 5 -3 21 -7 37 -10 16 -3 32 -10 35 -17 6 -8 9 -8 14 0 5 7 13 8 24 2 18 -9
24 -11 45 -11 15 0 37 -46 37 -78 0 -16 -4 -21 -12 -16 -10 6 -10 4 0 -8 9
-11 10 -18 2 -23 -5 -3 -10 -23 -10 -44 0 -20 -6 -43 -12 -50 -7 -8 -8 -11 -2
-8 6 3 11 0 11 -8 0 -8 -4 -12 -9 -9 -4 3 -8 -4 -8 -16 0 -14 -4 -19 -12 -14
-9 5 -9 3 1 -9 11 -14 11 -18 -2 -23 -9 -3 -13 -12 -10 -20 3 -8 0 -14 -7 -14
-6 0 -8 -4 -5 -10 3 -6 -1 -7 -10 -4 -17 7 -17 -16 0 -28 6 -5 3 -8 -7 -8 -9
0 -20 -5 -24 -12 -4 -6 -3 -8 3 -5 5 3 10 0 10 -8 0 -11 -5 -11 -19 -4 -18 9
-18 8 -8 -10 6 -12 7 -20 3 -19 -4 2 -19 -5 -33 -15 -13 -9 -20 -17 -14 -17 5
0 15 5 21 11 9 9 11 7 9 -7 -2 -11 -10 -18 -17 -17 -8 2 -19 -7 -24 -20 -6
-13 -18 -22 -32 -21 -19 0 -20 -2 -11 -19 6 -13 6 -17 0 -13 -6 3 -12 3 -15
-1 -2 -5 -2 -2 0 5 1 7 -2 10 -7 7 -6 -3 -10 -13 -10 -21 0 -9 -5 -12 -12 -8
-7 5 -9 2 -6 -7 5 -12 -2 -14 -29 -11 -21 3 -30 8 -23 12 8 5 4 9 -10 13 -12
3 -19 10 -16 16 4 5 2 12 -4 16 -6 4 -8 11 -5 16 4 5 5 9 3 10 -2 0 -23 3 -48
6 -25 3 -54 10 -65 16 -22 11 -65 16 -65 7 0 -8 -48 -5 -57 3 -3 4 -12 2 -19
-4 -8 -7 -14 -7 -19 1 -5 8 -10 8 -20 0 -10 -8 -15 -8 -20 0 -5 8 -10 8 -20 0
-10 -8 -15 -8 -20 0 -5 8 -10 8 -20 0 -10 -8 -15 -8 -20 0 -5 8 -10 8 -20 0
-9 -8 -15 -8 -20 0 -4 7 -12 7 -24 0 -10 -5 -21 -6 -25 -3 -3 3 -6 0 -6 -7 0
-11 -3 -11 -11 -3 -9 9 -15 8 -25 -2 -10 -10 -23 -11 -43 -5 -15 4 -34 4 -41
0 -7 -5 -19 -6 -25 -4 -7 3 -15 -2 -19 -11 -3 -9 -10 -14 -14 -11 -5 3 -9 0
-9 -7 -3 -50 -9 -77 -16 -77 -5 0 -6 8 -3 17 6 14 3 14 -15 -3 -16 -14 -23
-15 -26 -6 -3 6 -10 9 -16 5 -7 -4 -6 1 2 10 9 11 10 17 2 18 -6 1 -15 2 -20
3 -6 0 -16 7 -23 14 -10 10 -10 15 2 23 11 8 9 9 -9 4 -16 -5 -21 -4 -17 4 4
6 0 11 -11 11 -15 0 -16 2 -3 10 12 8 11 10 -6 10 -11 0 -30 11 -42 25 -12 14
-18 25 -12 25 5 0 14 -9 20 -20 6 -11 16 -20 22 -20 6 0 -7 18 -30 40 -23 21
-42 44 -42 50 0 13 -22 53 -34 61 -5 4 -6 14 -3 23 5 14 3 15 -13 6 -16 -9
-18 -7 -15 10 2 11 0 20 -6 20 -5 0 -9 14 -9 30 0 17 -4 30 -10 30 -5 0 -10 5
-10 11 0 5 6 7 13 3 10 -6 10 -4 0 7 -16 16 -18 173 -3 164 6 -3 10 1 10 10 0
12 5 15 18 11 14 -5 13 -3 -3 10 -20 16 -20 16 1 10 11 -3 29 0 39 8 14 10 24
11 32 4 9 -7 15 -6 19 6 3 9 10 13 15 10 5 -3 9 0 9 5 0 6 5 11 11 11 5 0 7
-4 4 -10 -3 -5 -4 -10 -1 -10 28 0 50 175 24 191 -11 7 -11 9 0 9 7 0 10 5 7
10 -4 6 -11 8 -16 5 -5 -4 -10 0 -11 7 0 7 -2 18 -2 23 -2 17 -39 54 -48 49
-4 -3 -16 0 -25 6 -16 10 -16 11 2 6 19 -5 19 -5 1 7 -25 17 -64 50 -48 42 6
-3 12 -1 12 4 0 6 -9 11 -20 11 -11 0 -20 5 -20 11 0 5 6 7 13 4 6 -4 2 2 -11
13 -15 14 -18 22 -10 25 7 3 3 6 -9 6 -13 1 -23 6 -23 12 0 5 6 7 13 3 7 -4 9
-3 4 2 -5 5 -14 9 -20 9 -7 0 -11 8 -11 18 2 14 -1 15 -12 6 -10 -8 -12 -7 -9
10 2 11 0 23 -5 26 -6 3 -6 15 0 29 5 13 7 26 4 29 -3 3 -6 68 -7 146 -2 119
0 141 13 141 13 0 13 1 0 10 -10 6 -11 10 -2 10 6 0 12 6 12 14 0 8 7 17 16
20 10 4 13 2 8 -6 -4 -7 -3 -8 4 -4 7 4 12 14 12 22 0 9 5 12 12 8 8 -5 9 -2
5 10 -5 11 -3 15 5 10 7 -5 9 -2 6 7 -4 10 1 15 15 17 12 0 27 8 33 17 6 8 18
13 26 10 8 -3 20 1 27 9 9 10 19 13 30 8 9 -5 25 -8 36 -8z m3035 -18 c0 -3
-4 -8 -10 -11 -5 -3 -10 -1 -10 4 0 6 5 11 10 11 6 0 10 -2 10 -4z m-3076
-745 c-5 -6 -34 20 -34 30 0 5 8 1 18 -8 10 -10 17 -20 16 -22z"/>
<path d="M3165 4119 c-4 -6 -5 -12 -2 -15 2 -3 7 2 10 11 7 17 1 20 -8 4z"/>
<path d="M2394 4028 c-4 -6 -3 -8 4 -4 6 3 18 -1 26 -10 9 -8 16 -11 16 -5 0
17 -38 33 -46 19z"/>
<path d="M2130 3476 c0 -2 7 -7 16 -10 8 -3 12 -2 9 4 -6 10 -25 14 -25 6z"/>
<path d="M3240 2579 c0 -5 5 -7 10 -4 6 3 10 8 10 11 0 2 -4 4 -10 4 -5 0 -10
-5 -10 -11z"/>
<path d="M2306 2538 c3 -5 10 -6 15 -3 13 9 11 12 -6 12 -8 0 -12 -4 -9 -9z"/>
</g>
</svg>
